<svg width="49" height="49" viewBox="0 0 49 49" fill="none" xmlns="http://www.w3.org/2000/svg">
<path d="M47.8702 16.2776L25.3701 0.277502C24.8501 -0.0925008 24.1521 -0.0925008 23.6321 0.277502L1.132 16.2776C0.736001 16.5577 0.5 17.0137 0.5 17.4997V24.4998C0.5 25.0617 0.814001 25.5757 1.312 25.8337C1.812 26.0897 2.41001 26.0478 2.86801 25.7237L4.50001 24.5617V46C4.50001 47.1039 5.39601 47.9999 6.5 47.9999H8.50003V23.9997H40.5001V47.9999H42.5001C43.6041 47.9999 44.5002 47.1039 44.5002 46V24.5617L46.1302 25.7217C46.3901 25.9057 46.6941 25.9998 47.0002 25.9998C47.2361 25.9998 47.4701 25.9437 47.6882 25.8337C48.1861 25.5757 48.4999 25.0617 48.4999 24.4998V17.4997C48.4999 17.0137 48.2642 16.5577 47.8702 16.2776Z" fill="#7ECA4E"/>
<path d="M19.0001 37.9999V39.4999C19.0001 40.3279 18.328 40.9999 17.5 40.9999C16.672 40.9999 16.0001 40.3279 16.0001 39.4999V37.9999H12.5C11.948 37.9999 11.5 38.4479 11.5 38.9999V46.9999C11.5 47.552 11.948 48 12.5 48H22.5001C23.052 48 23.5001 47.552 23.5001 46.9999V38.9999C23.5001 38.4479 23.052 37.9999 22.5001 37.9999H19.0001Z" fill="#7ECA4E"/>
<path d="M33.0002 37.9999V39.4999C33.0002 40.3279 32.3282 40.9999 31.5002 40.9999C30.6722 40.9999 30.0002 40.3279 30.0002 39.4999V37.9999H26.5002C25.9482 37.9999 25.5002 38.4479 25.5002 38.9999V46.9999C25.5002 47.552 25.9482 48 26.5002 48H36.5002C37.0522 48 37.5002 47.552 37.5002 46.9999V38.9999C37.5002 38.4479 37.0522 37.9999 36.5002 37.9999H33.0002Z" fill="#7ECA4E"/>
<path d="M26.0001 25.9999V27.4999C26.0001 28.3279 25.3281 28.9999 24.5001 28.9999C23.6721 28.9999 23.0001 28.3279 23.0001 27.4999V25.9999H19.5001C18.9481 25.9999 18.5001 26.4479 18.5001 26.9999V34.9999C18.5001 35.552 18.9481 36 19.5001 36H29.5001C30.0521 36 30.5001 35.552 30.5001 34.9999V26.9999C30.5001 26.4479 30.0521 25.9999 29.5001 25.9999H26.0001Z" fill="#7ECA4E"/>
</svg>
