<svg width="56" height="49" viewBox="0 0 56 49" fill="none" xmlns="http://www.w3.org/2000/svg">
<path d="M16.9523 17.178H22.2979V22.5192H16.9523V17.178Z" fill="#7ECA4E"/>
<path d="M17.0887 35.8346H22.1614V48.2597H17.0887V35.8346Z" fill="#7ECA4E"/>
<path d="M36.9544 29.837H42.3001V35.1783H36.9544V29.837Z" fill="#7ECA4E"/>
<path d="M38.7011 17.2562L19.6249 0.259766L0.0982666 17.6575L2.17806 20.2641L3.25946 19.3006V48.2598H13.862V32.4253H25.3877V48.2597H51.9794V20.6655H55.0983V17.2562H38.7011ZM25.5241 25.9285H13.7255V13.7686H25.5241V25.9285ZM45.5264 38.5876H33.7277V26.4277H45.5263V38.5876H45.5264Z" fill="#7ECA4E"/>
<path d="M33.4892 3.04175H30.2627V5.27804L33.4892 8.15268V3.04175Z" fill="#7ECA4E"/>
</svg>
