<svg width="49" height="49" viewBox="0 0 49 49" fill="none" xmlns="http://www.w3.org/2000/svg">
<path d="M20.5534 11.5405H16.6669L15.2606 14.353H21.9596L20.5534 11.5405Z" fill="#7ECA4E"/>
<path d="M14.3914 21.3843C14.3914 23.2152 15.5705 24.7615 17.2039 25.344V17.1655H14.3914V21.3843Z" fill="#7ECA4E"/>
<path d="M18.6101 0.290527C8.53009 0.290527 0.328857 8.49175 0.328857 18.5718C0.328857 28.6517 8.53009 36.853 18.6101 36.853C28.6901 36.853 36.8913 28.6517 36.8913 18.5718C36.8913 8.49175 28.6901 0.290527 18.6101 0.290527ZM27.0476 19.978C29.3739 19.978 31.2663 21.8704 31.2663 24.1968C31.2663 24.974 30.6374 25.603 29.8601 25.603C29.0828 25.603 28.4539 24.974 28.4539 24.1968C28.4539 23.4208 27.8234 22.7905 27.0476 22.7905H25.499C25.2733 23.8979 24.7635 24.8914 24.083 25.7437C25.0524 26.7456 25.6413 28.0735 25.6413 29.5251V29.8217C25.6413 30.599 25.0124 31.2279 24.2351 31.2279C23.4578 31.2279 22.8288 30.599 22.8288 29.8217V29.5251C22.8288 28.7492 22.4961 28.0371 21.9365 27.5402C20.9416 28.0804 19.8197 28.4155 18.6101 28.4155C17.4005 28.4155 16.2786 28.0804 15.2836 27.5401C14.7241 28.0371 14.3913 28.7491 14.3913 29.525V29.8217C14.3913 30.599 13.7624 31.2279 12.9851 31.2279C12.2078 31.2279 11.5788 30.599 11.5788 29.8217V29.5251C11.5788 28.0735 12.1678 26.7456 13.1372 25.7438C12.4567 24.8915 11.9468 23.898 11.7211 22.7906H10.1726C9.39673 22.7906 8.76636 23.4209 8.76636 24.1968C8.76636 24.9741 8.13738 25.6031 7.36012 25.6031C6.58281 25.6031 5.95383 24.9741 5.95383 24.1968C5.95383 21.8705 7.84628 19.9781 10.1726 19.9781H11.5788V16.6286L9.24701 15.4626C9.02868 15.3505 8.76636 15.5098 8.76636 15.7592C8.76636 16.5365 8.13738 17.1655 7.36012 17.1655C6.58281 17.1655 5.95383 16.5365 5.95383 15.7592C5.95383 13.4159 8.42081 11.9024 10.5035 12.9467L12.3559 13.8725L13.7883 11.008C12.479 10.2912 11.5788 8.91681 11.5788 7.32175C11.5788 6.54448 12.2078 5.91554 12.9851 5.91554C13.7624 5.91554 14.3913 6.54448 14.3913 7.32175C14.3913 8.09766 15.0217 8.72801 15.7976 8.72801H21.4226C22.1985 8.72801 22.8288 8.09766 22.8288 7.32175C22.8288 6.54448 23.4578 5.91554 24.2351 5.91554C25.0124 5.91554 25.6413 6.54448 25.6413 7.32175C25.6413 8.91681 24.7411 10.2912 23.4319 11.008L24.8641 13.8723L26.7153 12.9467C28.8052 11.8945 31.2663 13.4257 31.2663 15.7592C31.2663 16.5365 30.6374 17.1655 29.8601 17.1655C29.0828 17.1655 28.4539 16.5365 28.4539 15.7592C28.4539 15.523 28.2146 15.3523 27.9718 15.4626L25.6413 16.6284V19.978H27.0476Z" fill="#7ECA4E"/>
<path d="M20.0162 25.344C21.6495 24.7615 22.8287 23.2152 22.8287 21.3843V17.1655H20.0162V25.344Z" fill="#7ECA4E"/>
<path d="M30.2311 36.1586L32.4923 38.4197L38.4578 32.4541L36.1967 30.193C34.6279 32.5589 32.5971 34.5897 30.2311 36.1586Z" fill="#7ECA4E"/>
<path d="M47.0957 41.0919L40.4464 34.4426L34.4808 40.4082L41.1301 47.0574C42.7702 48.7002 45.4457 48.7031 47.0971 47.0574C48.7397 45.4108 48.7397 42.7357 47.0957 41.0919Z" fill="#7ECA4E"/>
</svg>
