<svg width="42" height="49" viewBox="0 0 42 49" fill="none" xmlns="http://www.w3.org/2000/svg">
<path d="M16.6104 40.656C16.1235 39.1846 15.9017 37.6524 15.9655 36.1337C16.07 33.6347 16.9095 31.1968 18.4604 28.8882C19.1778 27.8199 20.3752 27.182 21.6624 27.182C22.3579 27.182 23.0288 27.3717 23.6095 27.7138C24.166 26.591 24.5473 25.303 24.7167 23.9389C24.9425 22.1162 26.4365 20.7206 28.2476 20.5873C27.6163 19.6582 27.0084 18.7152 26.3874 17.7499C25.8708 16.9475 25.3451 16.1305 24.7915 15.3018C25.0642 15.2831 25.34 15.2633 25.6314 15.2421C26.0549 15.2117 26.5113 15.1787 27.0407 15.1432C27.5829 15.1073 28.0584 14.77 28.2714 14.2709C28.4841 13.7714 28.3979 13.1953 28.0485 12.78C24.6272 8.71473 21.3295 4.51171 18.2444 0.555175C17.9716 0.20508 17.5522 0.00036634 17.1079 0C17.1075 0 17.1075 0 17.1072 0C16.6632 0 16.2438 0.204348 15.9706 0.554079C12.8907 4.49672 9.59656 8.68799 6.16173 12.7771C5.81305 13.1924 5.72728 13.7677 5.93955 14.2665C6.15183 14.7649 6.62624 15.1022 7.16736 15.1395C7.64653 15.1725 8.06595 15.2029 8.45568 15.2311C8.84465 15.2597 9.20721 15.286 9.57092 15.3106C7.56406 18.4713 5.49079 21.3559 2.89186 24.6204C2.57911 25.0129 2.49372 25.5399 2.66599 26.0112C2.8387 26.4822 3.24419 26.8301 3.73656 26.9286C4.34367 27.0502 4.85914 27.1633 5.35809 27.2729C5.77862 27.3651 6.1782 27.453 6.58845 27.5358C5.18688 29.3716 3.83151 31.0375 2.41669 32.7759C1.7359 33.6123 1.03198 34.4773 0.316345 35.3701C0.0534795 35.6979 -0.0528425 36.1238 0.0248842 36.5365C0.102606 36.9492 0.356673 37.3074 0.720727 37.5172C5.12785 40.0587 9.93169 40.7633 13.9025 40.7633C14.8598 40.7633 15.7675 40.722 16.6104 40.656Z" fill="#7ECA4E"/>
<path d="M28.7348 40.4348C28.3722 42.6922 27.5253 45.1831 26.0416 46.93C27.5452 47.6162 29.1487 48 30.7123 48C31.8397 48 32.9033 47.8407 33.8943 47.5467C33.2457 44.0325 31.2264 41.2936 28.7348 40.4348Z" fill="#7ECA4E"/>
<path d="M41.7656 33.0426C41.6197 32.2292 40.584 31.9817 40.0637 32.6244C39.4342 33.4022 38.605 34.0156 37.6998 34.3327C37.3838 34.4437 37.03 34.4151 36.7514 34.2298C36.4976 34.061 36.344 33.812 36.3059 33.5073C35.6614 28.3789 32.6093 24.3315 28.7425 23.479C28.1893 23.357 27.6478 23.732 27.5778 24.2934C27.2266 27.1239 26.1498 29.598 24.6239 31.4016C24.1998 31.9026 23.4196 31.8879 23.02 31.3533C22.8304 31.0998 22.6522 30.8277 22.4866 30.5384C22.1335 29.9207 21.2514 29.9023 20.8547 30.4934C16.8981 36.3824 19.2845 42.1928 23.5186 45.4168C25.0419 43.9663 25.8884 41.0183 26.0402 38.6339C26.0644 38.2527 26.2393 37.8967 26.5263 37.6444C26.8134 37.3921 27.1899 37.2643 27.5704 37.2881C29.9032 37.436 32.1257 38.6306 33.8279 40.6514C35.1235 42.1891 36.0746 44.16 36.5798 46.3166C40.6269 43.7177 42.7371 38.4589 41.7656 33.0426Z" fill="#7ECA4E"/>
<path d="M17.8869 43.416C17.7652 43.4384 17.6424 43.4559 17.5181 43.468C16.309 43.5841 15.0926 43.6431 13.9028 43.6431C13.0002 43.6431 12.1141 43.6098 11.2445 43.5449V45.978C11.2445 46.7731 11.8897 47.418 12.686 47.418H21.3969C19.984 46.2776 18.7954 44.9226 17.8869 43.416Z" fill="#7ECA4E"/>
</svg>
