<svg width="87" height="49" viewBox="0 0 87 49" fill="none" xmlns="http://www.w3.org/2000/svg">
<path d="M86.3772 45.947L84.3861 32.4427C84.2865 31.7658 83.829 31.1924 83.192 30.9474L73.4458 27.1847L67.6801 15.7389H78.2262C79.272 15.7389 80.1503 14.8866 80.1227 13.8383C80.0883 12.5027 77.1208 1.48296 77.1208 1.48296C76.8832 0.684243 76.136 0.125488 75.3038 0.125488H49.8293C49.5327 0.125488 49.2363 0.196388 48.9724 0.330975L42.5114 3.61101H2.2941C1.24911 3.61101 0.397705 4.46357 0.397705 5.51123V46.2249C0.397705 47.2731 1.24911 48.1255 2.2941 48.1255H13.1388C13.2431 48.1255 13.3434 48.0837 13.4146 48.0071C13.4861 47.9316 13.5233 47.8297 13.5178 47.7258L13.51 47.5991C13.5046 47.5217 13.4996 47.4446 13.4996 47.3659C13.4996 43.611 16.5468 40.5564 20.2925 40.5564C24.0384 40.5564 27.0861 43.611 27.0861 47.3659C27.0861 47.4446 27.08 47.5217 27.0751 47.5991L27.0672 47.7258C27.0614 47.8297 27.099 47.9316 27.17 48.0071C27.242 48.0837 27.3426 48.1255 27.4454 48.1255H60.3755C60.4805 48.1255 60.5798 48.0837 60.6515 48.0071C60.7227 47.9316 60.7599 47.8297 60.7546 47.7258L60.7464 47.5991C60.7409 47.5217 60.7359 47.4446 60.7359 47.3659C60.7359 43.611 63.7836 40.5564 67.5284 40.5564C71.2744 40.5564 74.3221 43.611 74.3221 47.3659C74.3221 47.4446 74.3167 47.5217 74.3109 47.5991L74.3034 47.7258C74.2979 47.8297 74.3354 47.9316 74.4069 48.0071C74.4783 48.0837 74.5775 48.1255 74.6827 48.1255H84.5012C85.0532 48.1255 85.5767 47.8859 85.9376 47.4667C86.2973 47.0488 86.458 46.495 86.3772 45.947ZM29.6979 24.4618C29.6979 26.0003 28.4525 27.2475 26.9165 27.2475H7.99116C6.45632 27.2475 5.21195 26.0003 5.21195 24.4618L5.21335 18.5189C5.21335 16.9808 6.4579 15.7333 7.99291 15.7333H26.9165C28.4527 15.7333 29.6979 16.9808 29.6979 18.5189V24.4618ZM47.4164 39.3607C47.4164 40.7152 46.3208 41.8124 44.97 41.8124H36.8991C35.5478 41.8124 34.4524 40.7154 34.4524 39.3607V18.1805C34.4524 16.8262 35.5478 15.7287 36.8991 15.7287H44.97C46.321 15.7287 47.4164 16.826 47.4164 18.1805V39.3607ZM67.1701 26.3215C66.802 26.8992 66.166 27.2484 65.4829 27.2484H54.2808C53.175 27.2484 52.2788 26.3493 52.2788 25.2409V17.7403C52.2788 16.6304 53.175 15.7333 54.2808 15.7333H62.0234C62.8043 15.7333 63.5139 16.1877 63.8416 16.8974L67.3003 24.3998C67.5865 25.0199 67.5372 25.7461 67.1701 26.3215ZM81.5551 36.8433C81.4493 36.964 81.2966 37.0325 81.1356 37.0325H78.1554C77.8467 37.0325 77.5961 36.7821 77.5961 36.4723V34.9791C77.5961 32.8664 79.8086 32.5109 81.0077 32.9846C81.1814 33.0519 81.2895 33.2301 81.3131 33.4152L81.6902 36.4022C81.7104 36.5621 81.6607 36.7231 81.5551 36.8433Z" fill="#7ECA4E"/>
</svg>
