<svg width="36" height="36" viewBox="0 0 36 36" fill="none" xmlns="http://www.w3.org/2000/svg">
<g clip-path="url(#clip0)">
<path d="M9.68329 9.66933C10.3079 10.2 10.9643 10.5587 11.517 10.797C11.1939 11.1477 10.8795 11.5243 10.5754 11.928C12.5647 13.8199 15.2359 14.8943 18.0002 14.8943C20.7646 14.8943 23.4357 13.8199 25.4252 11.928C25.1211 11.5243 24.8067 11.1476 24.4836 10.797C25.0361 10.5586 25.6925 10.1999 26.3172 9.66933C27.6771 8.51423 29.1528 6.32303 28.4604 2.44392C28.3587 1.87419 27.8115 1.4943 27.2379 1.59523C26.6643 1.69622 26.2817 2.23997 26.3835 2.80971C26.7936 5.10694 26.3297 6.86195 25.0049 8.02602C23.9895 8.91836 22.8064 9.15787 22.7714 9.16471C22.741 9.17022 22.7116 9.17764 22.6824 9.1856C21.2076 8.12407 19.6155 7.56286 18.0001 7.56286C16.3847 7.56286 14.7927 8.124 13.3179 9.18546C13.287 9.17706 13.2558 9.16946 13.2238 9.16374C13.2125 9.16171 12.0693 8.93911 11.0539 8.07666C9.68421 6.91316 9.20068 5.14108 9.61677 2.80964C9.71845 2.2399 9.33594 1.69615 8.76241 1.59515C8.18889 1.49402 7.64152 1.87412 7.53985 2.44385C6.84755 6.32295 8.32333 8.51423 9.68329 9.66933Z" fill="#7ECA4E"/>
<path d="M27.8527 16.3901C27.6833 15.9324 27.4929 15.4777 27.2834 15.0297C29.1129 15.1939 32.0539 15.805 34.1985 17.9394C34.4047 18.1444 34.6747 18.2469 34.9452 18.2469C35.2147 18.2469 35.4845 18.1449 35.6901 17.9407C36.1025 17.5319 36.1029 16.8686 35.6916 16.4591C33.0547 13.8353 29.5466 13.1144 27.3895 12.9331C24.9677 15.5115 21.5478 16.9898 18 16.9898C14.4521 16.9898 11.0323 15.5115 8.61067 12.9331C6.45338 13.1144 2.94533 13.8352 0.308501 16.4591C-0.103033 16.8686 -0.102471 17.5319 0.309835 17.9407C0.515707 18.1449 0.785352 18.2469 1.05493 18.2469C1.32513 18.2469 1.59534 18.1444 1.80128 17.9394C3.93482 15.8163 6.88058 15.2021 8.71459 15.0342C8.50576 15.4808 8.31636 15.9338 8.1474 16.3901C6.63043 17.0137 2.32834 19.2922 0.0595973 25.7254C-0.132986 26.2716 0.156557 26.8693 0.706322 27.0605C0.821705 27.1008 0.939336 27.1199 1.055 27.1199C1.49058 27.1199 1.89824 26.8498 2.0504 26.4183C3.0377 23.6186 4.55342 21.3861 6.5556 19.7831C6.84261 19.5533 7.1195 19.3539 7.37995 19.1812C7.24339 19.9486 7.17216 20.7043 7.17216 21.4311C7.17216 22.5998 7.36144 23.7253 7.71004 24.7797C7.30252 28.027 7.56233 30.7824 8.4839 32.9717C9.22617 34.735 10.1492 35.481 10.252 35.5603C10.4443 35.7086 10.672 35.7804 10.8979 35.7804C11.2126 35.7804 11.524 35.6412 11.7319 35.3751C12.089 34.9178 12.0054 34.2598 11.5453 33.9051C11.5238 33.8884 9.81842 32.4348 9.64869 28.27C11.6363 30.661 14.6422 32.1873 18.0002 32.1873C21.3581 32.1873 24.3641 30.661 26.3515 28.2702C26.1818 32.435 24.4764 33.8884 24.455 33.9051C23.9948 34.2598 23.9113 34.9178 24.2683 35.3751C24.4764 35.6412 24.7877 35.7804 25.1023 35.7804C25.3284 35.7804 25.5559 35.7086 25.7481 35.5603C25.8511 35.481 26.7741 34.735 27.5162 32.9717C28.4378 30.7826 28.6977 28.0273 28.2902 24.7797C28.6387 23.7254 28.8281 22.5998 28.8281 21.4311C28.8281 20.7043 28.7568 19.9486 28.6202 19.1811C28.8806 19.3538 29.1576 19.5532 29.4446 19.783C31.4467 21.3861 32.9625 23.6185 33.9499 26.4183C34.1021 26.8498 34.5096 27.1199 34.9452 27.1199C35.0609 27.1199 35.1785 27.1008 35.2939 27.0605C35.8435 26.8693 36.1329 26.2714 35.9405 25.7254C33.672 19.2922 29.3697 17.0138 27.8527 16.3901Z" fill="#7ECA4E"/>
<path d="M22.2188 6.47085V6.16576C22.2188 5.2185 21.9005 4.34397 21.3648 3.64132C21.6388 2.91403 21.8675 2.02145 21.8675 1.06722C21.8675 0.488616 21.3953 0.0195312 20.8128 0.0195312C20.2303 0.0195312 19.7581 0.488616 19.7581 1.06722C19.7581 1.49056 19.6906 1.90376 19.59 2.28505C19.099 2.08578 18.5624 1.97501 18 1.97501C17.4377 1.97501 16.9012 2.08578 16.4101 2.28498C16.3097 1.90376 16.2421 1.49049 16.2421 1.06722C16.2421 0.488616 15.7699 0.0195312 15.1875 0.0195312C14.605 0.0195312 14.1328 0.488616 14.1328 1.06722C14.1328 2.02138 14.3615 2.91396 14.6354 3.64118C14.0998 4.34382 13.7814 5.21843 13.7814 6.16576V6.47085C15.135 5.81172 16.557 5.46771 18 5.46771C19.4433 5.46771 20.8652 5.81172 22.2188 6.47085Z" fill="#7ECA4E"/>
</g>
<defs>
<clipPath>
<rect width="36" height="36" fill="white"/>
</clipPath>
</defs>
</svg>
