<svg width="36" height="36" viewBox="0 0 36 36" fill="none" xmlns="http://www.w3.org/2000/svg">
<path d="M34.9452 0H27.7147C24.2153 0 20.9627 1.61677 18.8251 4.34174C18.5605 4.2696 18.2872 4.21877 18 4.21877C17.7128 4.21877 17.4395 4.2696 17.1749 4.34174C15.0373 1.61677 11.7846 0 8.28535 0H1.05469C0.471727 0 0 0.47173 0 1.05469C0 1.63766 0.471727 2.10939 1.05469 2.10939H8.28535C11.0886 2.10939 13.6994 3.38296 15.4401 5.53854C15.064 6.05907 14.8359 6.69301 14.8359 7.38285C14.8359 9.12759 16.2553 10.5469 18 10.5469C19.7447 10.5469 21.1641 9.12759 21.1641 7.38285C21.1641 6.69301 20.936 6.05907 20.5599 5.53854C22.3007 3.38296 24.9115 2.10939 27.7147 2.10939H34.9452C35.5282 2.10939 36 1.63766 36 1.05469C36 0.47173 35.5282 0 34.9452 0Z" fill="#7ECA4E"/>
<path d="M10.6172 21.0938C10.6172 27.5734 13.3242 32.8979 16.9453 33.753V16.8153C14.9855 16.6394 13.1369 15.9784 11.5358 14.8994C10.9506 16.7212 10.6172 18.8275 10.6172 21.0938Z" fill="#7ECA4E"/>
<path d="M24.4589 14.8845C22.8665 15.9543 21.0101 16.6102 19.0547 16.7928V33.7527C22.6758 32.8976 25.3829 27.5731 25.3829 21.0936C25.3829 18.821 25.0471 16.7098 24.4589 14.8845Z" fill="#7ECA4E"/>
<path d="M31.4018 8.74647C30.99 8.33451 30.3225 8.33451 29.9105 8.74647L26.0009 12.6562H25.8842C26.1655 13.3066 26.406 14.0039 26.6181 14.7297C26.8291 14.692 27.0297 14.6101 27.1831 14.4566L31.4018 10.2378C31.8139 9.82583 31.8139 9.15843 31.4018 8.74647Z" fill="#7ECA4E"/>
<path d="M34.9452 23.2031H31.3082L29.4902 19.5673C29.3109 19.2099 28.9464 18.9844 28.5468 18.9844H27.3936C27.4516 19.6728 27.4922 20.3723 27.4922 21.0937H27.8949L29.7127 24.7296C29.892 25.0869 30.2565 25.3125 30.6561 25.3125H34.9452C35.5281 25.3125 36 24.8409 36 24.2579C36 23.6749 35.5281 23.2031 34.9452 23.2031Z" fill="#7ECA4E"/>
<path d="M28.5468 36C29.1297 36 29.6016 35.5284 29.6016 34.9454V28.4766C29.6016 28.1243 29.4254 27.7948 29.1319 27.599L26.9525 26.146C26.7888 26.8902 26.5977 27.6112 26.3649 28.2894L27.4922 29.0409V34.9454C27.4922 35.5284 27.9638 36 28.5468 36Z" fill="#7ECA4E"/>
<path d="M6.86812 27.599C6.57455 27.7948 6.39844 28.1243 6.39844 28.4766V34.9454C6.39844 35.5284 6.87016 36 7.45312 36C8.03608 36 8.5078 35.5284 8.5078 34.9454V29.0409L9.63512 28.2894C9.40232 27.6112 9.21128 26.8902 9.04751 26.146L6.86812 27.599Z" fill="#7ECA4E"/>
<path d="M0 24.2579C0 24.8409 0.471727 25.3125 1.05469 25.3125H5.34374C5.74342 25.3125 6.10798 25.0869 6.28721 24.7296L8.10506 21.0937H8.50781C8.50781 20.3723 8.54825 19.6728 8.60647 18.9844H7.45313C7.05348 18.9844 6.6889 19.2099 6.50966 19.5673L4.69181 23.2031H1.05469C0.471727 23.2031 0 23.6749 0 24.2579Z" fill="#7ECA4E"/>
<path d="M9.99916 12.6562L6.08942 8.74647C5.67746 8.33451 5.00999 8.33451 4.59803 8.74647C4.18607 9.15843 4.18607 9.8259 4.59803 10.2379L8.81677 14.4567C8.97025 14.6101 9.17094 14.692 9.38181 14.7297C9.59387 14.004 9.83447 13.3067 10.1157 12.6563H9.99916V12.6562Z" fill="#7ECA4E"/>
<path d="M17.9999 12.6563C16.3064 12.6563 14.8132 11.8398 13.8478 10.595C13.2875 11.2412 12.7775 12.0024 12.3439 12.8839C13.961 14.0907 15.923 14.7657 17.9999 14.7657C20.073 14.7657 22.0385 14.0594 23.6464 12.8658C23.2148 11.992 22.7082 11.237 22.1519 10.5953C21.1864 11.8398 19.6933 12.6563 17.9999 12.6563Z" fill="#7ECA4E"/>
</svg>
