<svg width="36" height="36" viewBox="0 0 36 36" fill="none" xmlns="http://www.w3.org/2000/svg">
<path d="M15.4286 12.8571C15.4286 14.2771 14.2773 15.4285 12.8572 15.4285C11.4371 15.4285 10.2858 14.2771 10.2858 12.8571C10.2858 11.437 11.4371 10.2856 12.8572 10.2856C14.2773 10.2856 15.4286 11.437 15.4286 12.8571Z" fill="#7ECA4E"/>
<path d="M28.2857 18.0001C28.2857 18.7101 27.7099 19.2858 27 19.2858C26.2901 19.2858 25.7143 18.7101 25.7143 18.0001C25.7143 17.29 26.2901 16.7144 27 16.7144C27.7099 16.7144 28.2857 17.29 28.2857 18.0001Z" fill="#7ECA4E"/>
<path d="M12.2143 24.4285C12.2143 24.7835 11.9264 25.0715 11.5714 25.0715C11.2164 25.0715 10.9285 24.7835 10.9285 24.4285C10.9285 24.0735 11.2164 23.7856 11.5714 23.7856C11.9264 23.7856 12.2143 24.0735 12.2143 24.4285Z" fill="#7ECA4E"/>
<path d="M29.7259 23.2857L29.9328 22.7712C30.3072 21.8285 30.5681 20.8445 30.7099 19.8397L30.7891 19.2857H34.7143V16.7143H30.7891L30.7099 16.1627C30.5681 15.1583 30.3072 14.1742 29.9328 13.2313L29.7259 12.7171L33.1181 10.7581L31.8324 8.53256L28.4373 10.4913L28.0937 10.055C27.4651 9.25703 26.7449 8.53602 25.9476 7.90695L25.5105 7.56325L27.4706 4.16753L25.2437 2.8818L23.2857 6.27408L22.7712 6.06723C21.8289 5.69211 20.8448 5.43127 19.8404 5.29001L19.2857 5.21028V1.28564H16.7143V5.21028L16.1628 5.29001C15.1583 5.43127 14.1742 5.69211 13.2319 6.06723L12.7178 6.27408L10.7562 2.8818L8.52946 4.16753L10.4894 7.56325L10.0525 7.90695C9.25551 8.53537 8.53541 9.25547 7.907 10.0524L7.56329 10.4888L4.16821 8.53004L2.88248 10.7556L6.27507 12.7143L6.0679 13.2287C5.69343 14.1714 5.43257 15.1554 5.29069 16.1602L5.21096 16.7143H1.28571V19.2857H5.21096L5.29006 19.8372C5.43195 20.8417 5.69278 21.8257 6.06728 22.7687L6.27413 23.2828L2.88185 25.2443L4.16758 27.4698L7.56267 25.5112L7.90637 25.9475C8.53479 26.7445 9.2552 27.4645 10.0525 28.0929L10.4894 28.4368L8.52946 31.8323L10.7562 33.1182L12.7143 29.7258L13.2288 29.9327C14.1711 30.3078 15.1552 30.5687 16.1596 30.7098L16.7143 30.7929V34.7142H19.2857V30.7929L19.8372 30.713C20.8417 30.5718 21.8258 30.311 22.7681 29.9358L23.2822 29.729L25.2405 33.1214L27.4673 31.8354L25.5074 28.4401L25.9445 28.0962C26.7427 27.4669 27.4639 26.7457 28.0929 25.9475L28.4366 25.5112L31.8317 27.4698L33.1176 25.2443L29.7259 23.2857ZM11.5714 26.3572C10.5064 26.3572 9.64285 25.4937 9.64285 24.4285C9.64285 23.3635 10.5064 22.5 11.5714 22.5C12.6365 22.5 13.5 23.3635 13.5 24.4285C13.5 25.4937 12.6365 26.3572 11.5714 26.3572ZM12.8571 16.7143C10.727 16.7143 8.99998 14.9872 8.99998 12.8571C8.99998 10.727 10.727 8.99994 12.8571 8.99994C14.9872 8.99994 16.7143 10.727 16.7143 12.8571C16.7121 14.9866 14.9866 16.712 12.8571 16.7143ZM27 20.5714C25.5799 20.5714 24.4286 19.42 24.4286 18C24.4286 16.5799 25.5799 15.4285 27 15.4285C28.4201 15.4285 29.5713 16.5799 29.5713 18C29.5713 19.42 28.4201 20.5714 27 20.5714Z" fill="#7ECA4E"/>
<path d="M36 1.28572C36 1.99575 35.4243 2.57144 34.7143 2.57144C34.0042 2.57144 33.4286 1.99575 33.4286 1.28572C33.4286 0.575684 34.0042 0 34.7143 0C35.4243 0 36 0.575684 36 1.28572Z" fill="#7ECA4E"/>
<path d="M3.85714 34.0712C3.85714 35.1363 2.99362 35.9999 1.92857 35.9999C0.863525 35.9999 0 35.1363 0 34.0712C0 33.0063 0.863525 32.1428 1.92857 32.1428C2.99362 32.1428 3.85714 33.0063 3.85714 34.0712Z" fill="#7ECA4E"/>
</svg>
